# xmcd
#
# Track frame offsets:
#	150
#	16562
#	35142
#	51785
#	67757
#	79602
#	93657
#	104527
#	124937
#	141295
#	158420
#	175785
#	192092
#	208205
#	226015
#
# Disc length: 3138
#
# Revision: 1
# Processed by: cddbd v1.5.1PL0 Copyright (c) Steve Scherf et al.
# Submitted via: VisiTrax 2.9.5.180 - For more info visit www.synapsa.com
# Normalized: r0:DSETVAR1
#
DISCID=bd0c400f
DTITLE=Various Artist - CDX 243 July 2000
DYEAR=2000
DGENRE=
TTITLE0=Ty Herndon - A love like that
TTITLE1=Travis Tritt - Best of intentions
TTITLE2=Sara Evans - Born to fly
TTITLE3=Sons of the Desert - Everybody's gotta grow up sometime
TTITLE4=Joanie Keller - Grindin' wheel
TTITLE5=Kenny Rogers - He will, she knows
TTITLE6=Trent Summer and The New Row Mob - New money
TTITLE7=Clay Walker - Once in a lifetime love
TTITLE8=Willie Nelson - Rainy day blues
TTITLE9=Shane McAnally - Run away
TTITLE10=Wilkinsons - Shame on me
TTITLE11=Perfect Stranger - Teardrop Texas
TTITLE12=Sonya Isaacs - That's what love demands
TTITLE13=Billy Ray Cyrus - You won't be lonely now
TTITLE14=Mike Bella - Every little thing
EXTD=
EXTT0=
EXTT1=
EXTT2=
EXTT3=
EXTT4=
EXTT5=
EXTT6=
EXTT7=
EXTT8=
EXTT9=
EXTT10=
EXTT11=
EXTT12=
EXTT13=
EXTT14=
PLAYORDER=
